<svg xmlns="http://www.w3.org/2000/svg" xmlns:xlink="http://www.w3.org/1999/xlink" width="370" height="245" viewBox="0 0 370 245">
    <defs>
        <path id="a" d="M0 .096v69.576h102.425V.096H0z"/>
    </defs>
    <g fill="none" fill-rule="evenodd">
        <path fill="#FFF" d="M0 0h370v245H0z"/>
        <text fill="#4E4E4E" font-family="Lato-Bold, Lato" font-size="28" font-weight="bold">
            <tspan x="46.029" y="58">Publish with Quintype</tspan>
        </text>
        <text fill="#444" font-family="Lato-Regular, Lato" font-size="14">
            <tspan x="82.965" y="81">Mobile first, social first, data first. </tspan>
        </text>
        <text fill="#444" font-family="Lato-Regular, Lato" font-size="14">
            <tspan x="125.486" y="218">www.quintype.com</tspan>
        </text>
        <g transform="translate(107 99.4)">
            <mask id="b" fill="#fff">
                <use xlink:href="#a"/>
            </mask>
            <path fill="#FEFEFE" d="M96.135 69.672H6.29c-3.474 0-6.29-2.796-6.29-6.245V6.341C0 2.89 2.816.096 6.29.096h89.845c3.474 0 6.29 2.796 6.29 6.245v57.086c0 3.45-2.816 6.245-6.29 6.245" mask="url(#b)"/>
        </g>
        <path fill="#464655" d="M209.425 158.367H107V105.74c0-3.449 2.816-6.245 6.29-6.245h89.845c3.474 0 6.29 2.796 6.29 6.245v52.627z"/>
        <path fill="#61C2EE" d="M112.39 153.016h91.645V108H112.39z"/>
        <path fill="#FEFEFE" d="M174.262 182.452h-32.26l2.734-13.38h26.792z"/>
        <path fill="#95A4B8" d="M172.622 174.424h-28.965l1.079-5.352h26.792z"/>
        <path fill="#FEFEFE" d="M177.127 182.452h-38.885a2.252 2.252 0 0 0-2.253 2.237v.878a2.252 2.252 0 0 0 2.253 2.237h38.885a2.252 2.252 0 0 0 2.254-2.237v-.878a2.252 2.252 0 0 0-2.254-2.237"/>
        <path fill="#464655" d="M160.737 163.72a2.596 2.596 0 0 1-2.605 2.587 2.596 2.596 0 0 1-2.606-2.587 2.596 2.596 0 0 1 2.606-2.587 2.596 2.596 0 0 1 2.605 2.587M256.738 182.303h-74.163V145.92c0-3.448 2.816-6.245 6.29-6.245h61.582c3.474 0 6.29 2.797 6.29 6.245v36.383z"/>
        <path fill="#FDEE5A" d="M186.478 178.428h66.356v-33.913h-66.356z"/>
        <path fill="#FEFEFE" d="M260.528 182.303h-81.743c-1.835 0-3.336 1.49-3.336 3.311s1.501 3.311 3.336 3.311h81.743c1.834 0 3.335-1.49 3.335-3.311s-1.5-3.311-3.335-3.311"/>
        <path fill="#464655" d="M185.743 188.826h-17.767c-3.482 0-6.331-2.829-6.331-6.287v-26.934c0-3.458 2.849-6.287 6.331-6.287h17.767c3.483 0 6.332 2.83 6.332 6.287v26.934c0 3.458-2.849 6.287-6.332 6.287"/>
        <path fill="#50C1B4" d="M165.325 182.08h23.07V153.99h-23.07z"/>
        <path fill="#464655" d="M177.87 185.99c0 .641-.525 1.161-1.171 1.161-.647 0-1.171-.52-1.171-1.162 0-.642.524-1.162 1.17-1.162.647 0 1.171.52 1.171 1.162"/>
        <path fill="#FEFEFE" d="M178.03 185.99c0 .641-.524 1.161-1.17 1.161-.647 0-1.17-.52-1.17-1.162 0-.642.523-1.162 1.17-1.162.646 0 1.17.52 1.17 1.162"/>
        <path fill="#464655" d="M206.489 188.826h-6.3c-2.407 0-4.377-1.956-4.377-4.346v-19.45c0-2.39 1.97-4.345 4.377-4.345h6.3c2.407 0 4.377 1.955 4.377 4.346v19.449c0 2.39-1.97 4.346-4.377 4.346"/>
        <path fill="#FEFEFE" d="M204.273 186.587a.971.971 0 0 1-.975.967.971.971 0 0 1-.974-.967c0-.534.436-.968.974-.968.539 0 .975.434.975.968"/>
        <path fill="#AFE1F3" d="M197.643 184.131h11.31V163.72h-11.31z"/>
        <g fill="#FFF">
            <path d="M163.816 136.938l-.893 1.1s-1.025-1.915-3.495-1.27c0 0 4.616-2.94 4.16-7.964-.455-5.025-4.16-7.604-4.407-7.756-.247-.151-3.661 3.622-7.195 4.59 0 0 .16-3.566 2.818-3.888v-.455s-6.763.948-6.75 8.95c0 0 .261 6.969 7.168 7.262l2.683.114s2.262-.114 2.718 3.053l.343.284 3.021-3.849-.17-.17zm-12.074-6.428c-.019-1.953.146-4.408.146-4.408l1.428-.522v8.57l-.896.285s-.659-1.972-.678-3.925zm6.464 6.485s-1.17.341-2.956.095c-1.786-.247-2.77-2.323-2.77-2.323l4.238-1.11v-10.314l1.488 1.44v12.212zm.319-11.832c4.465 6.106 0 11.718 0 11.718v-11.718z"/>
        </g>
        <g fill="#FFF">
            <path d="M230.816 168.938l-.893 1.1s-1.025-1.915-3.495-1.27c0 0 4.616-2.94 4.16-7.964-.455-5.025-4.16-7.604-4.407-7.756-.247-.151-3.661 3.622-7.195 4.59 0 0 .16-3.566 2.818-3.888v-.455s-6.763.948-6.75 8.95c0 0 .261 6.969 7.168 7.262l2.683.114s2.262-.114 2.718 3.053l.343.284 3.021-3.849-.17-.17zm-12.074-6.428c-.019-1.953.146-4.408.146-4.408l1.428-.522v8.57l-.896.285s-.659-1.972-.678-3.925zm6.464 6.485s-1.17.341-2.956.095c-1.786-.247-2.77-2.323-2.77-2.323l4.238-1.11v-10.314l1.488 1.44v12.212zm.319-11.832c4.465 6.106 0 11.718 0 11.718v-11.718z"/>
        </g>
        <g fill="#FFF">
            <path d="M181.885 171.36l-.558.715s-.641-1.245-2.185-.826c0 0 2.886-1.91 2.6-5.177-.284-3.266-2.6-4.942-2.754-5.04-.154-.1-2.288 2.354-4.497 2.982 0 0 .1-2.317 1.761-2.527v-.295s-4.226.616-4.219 5.817c0 0 .164 4.53 4.481 4.72l1.676.075s1.414-.074 1.7 1.984l.214.185 1.888-2.502-.107-.111zm-7.546-4.178c-.012-1.27.09-2.866.09-2.866l.893-.339v5.571l-.56.185s-.411-1.282-.423-2.551zm4.04 4.215s-.732.222-1.848.061c-1.116-.16-1.731-1.51-1.731-1.51l2.649-.72v-6.705l.93.936v7.938zm.2-7.691c2.79 3.969 0 7.617 0 7.617v-7.617z"/>
        </g>
        <g fill="#FFF">
            <path d="M205.943 176.578l-.28.385s-.32-.67-1.092-.444c0 0 1.443-1.029 1.3-2.788-.142-1.758-1.3-2.661-1.377-2.714-.077-.053-1.144 1.268-2.248 1.606 0 0 .05-1.248.88-1.36v-.16s-2.113.332-2.11 3.133c0 0 .083 2.439 2.241 2.542l.838.04s.707-.04.85 1.068l.107.1.944-1.348-.053-.06zm-3.773-2.25c-.006-.683.045-1.542.045-1.542l.446-.183v3l-.28.1s-.206-.69-.211-1.374zm2.02 2.27s-.366.12-.924.033c-.559-.086-.866-.812-.866-.812l1.324-.389v-3.61l.465.504v4.274zm.099-4.14c1.395 2.136 0 4.1 0 4.1v-4.1z"/>
        </g>
    </g>
</svg>
