<svg xmlns="http://www.w3.org/2000/svg" width="32" height="30" viewBox="0 0 32 30">
    <g fill="none" fill-rule="evenodd">
        <path fill="#5E97F5" d="M5.45 14.386l.706-10.3 19.973.083.25 10.432-7.114 5.012-3.261-2.05-2.979 2.26z"/>
        <path fill="#FFF" d="M31.976 11.338a.475.475 0 0 0-.03-.164.82.82 0 0 0-.322-.456l-4.58-3.195V4.098a.821.821 0 0 0-.82-.823h-5.27L16.47.147a.817.817 0 0 0-.934-.001l-4.513 3.13H5.777a.82.82 0 0 0-.82.822v3.384L.354 10.675a.821.821 0 0 0-.353.664L0 11.354l.024 17.825a.824.824 0 0 0 .82.821h.001l30.337-.042c.452 0 .819-.37.818-.823l-.024-17.797zm-4.933-1.812l2.619 1.826-2.619 1.826V9.526zM16.001 1.823l2.082 1.452h-4.176l2.094-1.452zM6.596 4.92h18.808v9.402l-6.315 4.405-2.574-2.004-.012-.008a.817.817 0 0 0-.993.008l-2.593 2.018-6.32-4.383V4.92zM4.957 9.48v3.74l-2.697-1.87 2.697-1.87zm-3.316 3.441l9.917 6.877-9.897 7.703-.02-14.58zm1.601 15.43l12.77-9.939 12.725 9.904-25.495.035zm17.204-8.569l9.893-6.9.02 14.615-9.913-7.715z"/>
        <path fill="#FFF" d="M21.406 8.478H10.594c-.44 0-.798.292-.798.652 0 .36.357.653.798.653h10.812c.44 0 .798-.292.798-.653 0-.36-.357-.652-.798-.652zM21.406 13.043H10.594c-.44 0-.798.293-.798.653 0 .36.357.652.798.652h10.812c.44 0 .798-.292.798-.652 0-.36-.357-.653-.798-.653z"/>
    </g>
</svg>
