<svg xmlns="http://www.w3.org/2000/svg" width="63" height="79" viewBox="0 0 63 79">
    <path fill="#FFF" fill-rule="evenodd" d="M62.324 63.053l-3.53 4.363s-4.056-7.598-13.822-5.04c0 0 18.255-11.66 16.452-31.593C59.62 10.85 44.973.62 43.996.018 43.019-.584 29.522 14.385 15.55 18.22c0 0 .633-14.141 11.142-15.42V.996S-.047 4.756 0 36.5c0 0 1.037 27.646 28.346 28.81l10.604.451s8.946-.451 10.749 12.11L51.054 79 63 63.73l-.676-.677zm-47.737-25.5c-.075-7.748.575-17.489.575-17.489l5.645-2.069v34l-3.542 1.129s-2.603-7.823-2.678-15.571zm25.555 25.726s-4.627 1.354-11.688.376c-7.061-.978-10.952-9.215-10.952-9.215l16.756-4.4V9.12l5.884 5.716V63.28zm1.261-46.938c17.654 24.22 0 46.486 0 46.486V16.341z"/>
</svg>
